<mxfile host="app.diagrams.net" modified="2023-11-11T01:28:52.980Z" agent="Mozilla/5.0 (Macintosh; Intel Mac OS X 10_15_7) AppleWebKit/605.1.15 (KHTML, like Gecko) Version/16.3 Safari/605.1.15" version="22.1.0" etag="89FycDzkI-cp5F6ju7G9" type="github">
  <diagram name="Page-1" id="OQBEjoMNtMuPRmcQCCfM">
    <mxGraphModel>
      <root>
        <mxCell id="0" />
        <mxCell id="1" parent="0" />
      </root>
    </mxGraphModel>
  </diagram>
</mxfile>
